<?xml version="1.0" encoding="utf-8"?>
<!-- Generator: Adobe Illustrator 17.0.0, SVG Export Plug-In . SVG Version: 6.00 Build 0)  -->
<!DOCTYPE svg PUBLIC "-//W3C//DTD SVG 1.1//EN" "http://www.w3.org/Graphics/SVG/1.1/DTD/svg11.dtd">
<svg version="1.1" id="Layer_1" xmlns="http://www.w3.org/2000/svg" xmlns:xlink="http://www.w3.org/1999/xlink" x="0px" y="0px"
	 width="600.486px" height="213.994px" viewBox="0 0 600.486 213.994" enable-background="new 0 0 600.486 213.994"
	 xml:space="preserve">
<rect x="53.163" y="0.726" fill="#EC008C" width="1.453" height="212.359"/>
<rect x="545.12" y="0.726" fill="#EC008C" width="1.453" height="212.359"/>
<rect x="0.726" y="26.437" fill="#EC008C" width="599.033" height="1.453"/>
<rect x="0.726" y="79.956" fill="#EC008C" width="599.033" height="1.453"/>
<rect x="0.726" y="132.56" fill="#EC008C" width="599.033" height="1.453"/>
<rect x="0.726" y="186.103" fill="#EC008C" width="599.033" height="1.453"/>
<g>
	<path fill="#137CC1" d="M521.25,103.365c0-1.263-0.897-1.912-2.159-1.912c-3.376,0-5.249,3.294-5.859,5.981
		C515.593,107.474,521.25,106.863,521.25,103.365z"/>
	<path fill="#137CC1" d="M523.202,69.093c-11.587-6.927-18.127-14.27-20.437-17.476c0,0-0.817-1.268-1.748-1.268
		c-0.928,0-1.682,1.27-1.682,1.27c-2.278,3.206-8.968,10.586-20.612,17.541c-13.171,7.912-22.959,21.353-22.959,37.84
		c0,24.993,20.261,45.252,45.251,45.252c24.996,0,45.257-20.259,45.257-45.252C546.272,90.47,536.438,76.993,523.202,69.093z
		 M505.762,105.277l-2.443,13.755h-4.843l2.281-12.901c0.122-0.61,0.201-1.22,0.201-1.75c0-1.546-0.488-2.684-2.318-2.684
		c-2.403,0-4.233,2.034-4.599,4.151l-2.321,13.185h-4.843l2.281-12.901c0.122-0.61,0.201-1.22,0.201-1.79
		c0-1.464-0.406-2.644-2.361-2.644c-2.44,0-4.23,2.034-4.599,4.23l-2.278,13.105h-4.843l2.97-16.93l0.286-3.541h4.029l-0.082,2.522
		c1.751-1.992,3.949-3.132,6.512-3.132c2.565,0,4.355,0.976,5.047,3.254c1.628-2.114,3.947-3.254,6.551-3.254
		c3.459,0,5.374,1.708,5.374,5.127C505.966,103.731,505.884,104.545,505.762,105.277z M516.974,115.9
		c2.361,0,4.154-1.101,5.252-1.793l1.464,3.175c-1.016,0.775-3.867,2.361-7.896,2.361c-5.575,0-7.893-3.459-7.893-8.18
		c0-7.039,4.517-13.511,11.922-13.511c3.706,0,5.862,1.912,5.862,4.761c0,7.122-8.546,7.978-12.901,8.018
		C512.58,113.335,513.516,115.9,516.974,115.9z"/>
</g>
<g>
	<path fill="#4D4D4F" d="M87.586,80.369V60.603h12.339v62.435l0.942,10.248H90.2l-0.837-5.647l-0.419-0.105
		c-3.241,4.812-8.471,7.322-14.223,7.322c-16.314,0-20.601-12.759-20.601-25.832c0-17.883,9.203-29.909,25.308-29.909
		C82.775,79.115,85.18,79.637,87.586,80.369z M87.586,89.887c-1.882-0.837-4.602-1.674-7.844-1.674
		c-9.936,0-13.282,9.412-13.282,19.66c0,9.518,2.301,17.78,10.772,17.78c6.38,0,10.354-4.602,10.354-8.681V89.887z"/>
	<path fill="#4D4D4F" d="M123.043,133.287h-12.444V89.155l-0.942-8.472h10.25l1.254,7.635c2.301-5.961,7.425-9.203,12.654-9.203
		c3.138,0,6.066,0.732,8.367,2.091l-2.196,10.563c-2.301-1.256-4.707-2.092-7.425-2.092c-5.647,0-9.308,4.497-9.517,10.563V133.287z
		"/>
	<path fill="#4D4D4F" d="M189.351,80.683v43.82l0.837,8.784H179.52l-0.732-6.169h-0.419c-3.555,5.229-9.203,7.633-15.164,7.633
		c-11.504,0-17.255-6.066-17.255-18.405V80.683h12.444v33.362c0,6.38,1.151,11.085,8.157,11.085c5.648,0,10.353-5.02,10.353-10.04
		V80.683H189.351z"/>
	<path fill="#4D4D4F" d="M211.463,155.248h-12.444V82.565c7.842-2.404,15.582-3.45,20.915-3.45c16.732,0,24.576,9.308,24.576,27.399
		c0,18.406-8.471,28.341-22.17,28.341c-4.079,0-8.157-1.361-10.877-3.033V155.248z M217.632,89.05c-1.881,0-3.974,0.209-6.17,0.732
		v32.21c2.72,1.779,6.17,2.615,8.889,2.615c8.889,0,11.609-8.784,11.609-17.151C231.96,95.219,227.255,89.05,217.632,89.05z"/>
	<path fill="#4D4D4F" d="M295.945,123.247l0.942,10.039h-10.77l-0.732-5.543l-0.42-0.105c-3.24,4.707-8.576,7.007-14.327,7.007
		c-14.745,0-20.496-10.458-20.496-25.412c0-18.406,9.201-30.119,27.189-30.119c3.452,0,11.084,0.836,18.614,3.66V123.247z
		 M283.608,89.573c-1.572-0.732-4.602-1.36-7.846-1.36c-9.933,0-13.281,9.308-13.281,20.603c0,8.679,2.091,16.941,10.878,16.941
		c6.482,0,10.25-4.601,10.25-9.097V89.573z"/>
	<path fill="#4D4D4F" d="M341.936,58.617c4.284,0,7.212,3.137,7.212,7.007c0,3.973-3.03,6.901-7.212,6.901
		c-4.398,0-7.218-2.928-7.218-6.901C334.718,61.754,337.646,58.617,341.936,58.617z M335.762,133.287V80.683h12.444v52.604H335.762z
		"/>
	<path fill="#4D4D4F" d="M395.032,123.535h-25.05v-0.218c2.695-2.809,9.885-12.311,12.484-15.443l15.673-19.086v-8.103h-40.663
		v9.757h24.9v0.216c-2.809,3.024-5.521,6.446-8.217,9.686l-19.764,25.274v7.669h47.652
		C397.878,129.966,396.724,127.667,395.032,123.535z"/>
	<path fill="#4D4D4F" d="M330.724,123.354c-2.196,0.94-4.494,1.671-6.583,1.671c-4.29,0-5.652-2.405-5.652-8.889V60.709h-12.444
		v58.041c0,7.844,0.84,16.106,14.958,16.106c3.291,0,6.906-0.732,9.72-1.82V123.354z"/>
	<path fill="#4D4D4F" d="M438.011,121.099l-0.218-0.362c-2.508,1.777-7.002,4.601-13.176,4.601c-8.886,0-12.756-6.588-13.176-13.386
		c9.624-0.104,29.598-2.196,29.598-18.3c0-9.308-6.378-14.537-16.632-14.537c-16.626,0-25.513,13.595-25.513,28.968
		c0,15.687,7.11,26.772,24.367,26.772c9.618,0,16.371-4.107,18.953-6.283C440.59,126.226,439.171,123.741,438.011,121.099z
		 M423.674,88.004c3.768,0,6.276,2.301,6.276,6.169c0,8.054-13.278,9.831-18.93,9.726C411.338,96.161,415.31,88.004,423.674,88.004z
		"/>
</g>
<g>
	<path fill="#EC008C" d="M29.778,56.949l-2.474-3.3l-2.474,3.3h-1.173l3.02-3.972l-2.846-3.776h1.173l2.3,3.104l2.288-3.104h1.173
		l-2.834,3.765l3.009,3.983H29.778z"/>
</g>
<g>
	<path fill="#EC008C" d="M29.778,110.857l-2.474-3.3l-2.474,3.3h-1.173l3.02-3.972l-2.846-3.776h1.173l2.3,3.104l2.288-3.104h1.173
		l-2.834,3.765l3.009,3.983H29.778z"/>
</g>
<g>
	<path fill="#EC008C" d="M29.778,164.501l-2.474-3.3l-2.474,3.3h-1.173l3.02-3.972l-2.846-3.776h1.173l2.3,3.104l2.288-3.104h1.173
		l-2.834,3.765l3.009,3.983H29.778z"/>
</g>
<g>
	<path fill="#EC008C" d="M18.668,14.653v-3.739l-0.767,0.8l-0.406-0.428l1.254-1.28h0.616v4.647H18.668z M19.225,17.754h-0.64
		l4.948-7.749h0.651L19.225,17.754z M22.767,17.754v-0.522c1.776-1.265,2.66-2.023,2.66-2.778c0-0.59-0.488-0.845-0.987-0.845
		c-0.582,0-1.057,0.278-1.301,0.601l-0.383-0.44c0.383-0.488,1.044-0.732,1.707-0.732c0.848,0,1.661,0.428,1.661,1.37
		c0,0.942-0.965,1.787-2.335,2.775h2.358v0.57H22.767z"/>
	<path fill="#EC008C" d="M35.968,17.754l-2.474-3.3l-2.474,3.3h-1.173l3.02-3.972l-2.846-3.776h1.173l2.3,3.104l2.288-3.104h1.173
		l-2.834,3.765l3.009,3.983H35.968z"/>
</g>
<g>
	<path fill="#EC008C" d="M18.668,200.809v-3.74l-0.767,0.8l-0.406-0.428l1.254-1.28h0.616v4.647H18.668z M19.225,203.91h-0.64
		l4.948-7.749h0.651L19.225,203.91z M22.767,203.91v-0.522c1.776-1.265,2.66-2.023,2.66-2.778c0-0.59-0.488-0.846-0.987-0.846
		c-0.582,0-1.057,0.278-1.301,0.602l-0.383-0.44c0.383-0.488,1.044-0.732,1.707-0.732c0.848,0,1.661,0.428,1.661,1.37
		c0,0.942-0.965,1.787-2.335,2.775h2.358v0.57H22.767z"/>
	<path fill="#EC008C" d="M35.968,203.91l-2.474-3.3l-2.474,3.3h-1.173l3.02-3.972l-2.846-3.776h1.173l2.3,3.104l2.288-3.104h1.173
		l-2.834,3.765l3.009,3.983H35.968z"/>
</g>
<g>
	<path fill="#EC008C" d="M575.649,56.949l-2.474-3.3l-2.474,3.3h-1.175l3.022-3.972l-2.846-3.776h1.172l2.301,3.104l2.287-3.104
		h1.175l-2.834,3.765l3.008,3.983H575.649z"/>
</g>
<g>
	<path fill="#EC008C" d="M575.649,110.857l-2.474-3.3l-2.474,3.3h-1.175l3.022-3.972l-2.846-3.776h1.172l2.301,3.104l2.287-3.104
		h1.175l-2.834,3.765l3.008,3.983H575.649z"/>
</g>
<g>
	<path fill="#EC008C" d="M575.649,164.501l-2.474-3.3l-2.474,3.3h-1.175l3.022-3.972l-2.846-3.776h1.172l2.301,3.104l2.287-3.104
		h1.175l-2.834,3.765l3.008,3.983H575.649z"/>
</g>
<g>
	<path fill="#EC008C" d="M564.535,14.653v-3.739l-0.766,0.8l-0.406-0.428l1.254-1.28h0.616v4.647H564.535z M565.094,17.754h-0.641
		l4.948-7.749h0.653L565.094,17.754z M568.635,17.754v-0.522c1.776-1.265,2.661-2.023,2.661-2.778c0-0.59-0.488-0.845-0.987-0.845
		c-0.582,0-1.058,0.278-1.302,0.601l-0.383-0.44c0.383-0.488,1.044-0.732,1.708-0.732c0.848,0,1.66,0.428,1.66,1.37
		c0,0.942-0.965,1.787-2.335,2.775h2.358v0.57H568.635z"/>
	<path fill="#EC008C" d="M581.837,17.754l-2.474-3.3l-2.474,3.3h-1.175l3.022-3.972l-2.846-3.776h1.172l2.301,3.104l2.287-3.104
		h1.175l-2.834,3.765l3.007,3.983H581.837z"/>
</g>
<g>
	<path fill="#EC008C" d="M564.535,200.809v-3.74l-0.766,0.8l-0.406-0.428l1.254-1.28h0.616v4.647H564.535z M565.094,203.91h-0.641
		l4.948-7.749h0.653L565.094,203.91z M568.635,203.91v-0.522c1.776-1.265,2.661-2.023,2.661-2.778c0-0.59-0.488-0.846-0.987-0.846
		c-0.582,0-1.058,0.278-1.302,0.602l-0.383-0.44c0.383-0.488,1.044-0.732,1.708-0.732c0.848,0,1.66,0.428,1.66,1.37
		c0,0.942-0.965,1.787-2.335,2.775h2.358v0.57H568.635z"/>
	<path fill="#EC008C" d="M581.837,203.91l-2.474-3.3l-2.474,3.3h-1.175l3.022-3.972l-2.846-3.776h1.172l2.301,3.104l2.287-3.104
		h1.175l-2.834,3.765l3.007,3.983H581.837z"/>
</g>
<path fill="#EC008C" d="M600.486,213.994H0V0h600.486V213.994z M1.453,212.541h597.581V1.453H1.453V212.541z"/>
</svg>
