<?xml version="1.0" encoding="utf-8"?>
<!-- Generator: Adobe Illustrator 17.0.2, SVG Export Plug-In . SVG Version: 6.00 Build 0)  -->
<!DOCTYPE svg PUBLIC "-//W3C//DTD SVG 1.1//EN" "http://www.w3.org/Graphics/SVG/1.1/DTD/svg11.dtd">
<svg version="1.1" id="Layer_1" xmlns="http://www.w3.org/2000/svg" xmlns:xlink="http://www.w3.org/1999/xlink" x="0px" y="0px"
	 width="542.914px" height="321.831px" viewBox="0 0 542.914 321.831" enable-background="new 0 0 542.914 321.831"
	 xml:space="preserve">
<g>
	<path fill="#F5F5F5" d="M272.958,3C184.23,3,112.043,75.187,112.043,163.917c0,88.729,72.186,160.914,160.914,160.914
		s160.914-72.185,160.914-160.914C433.872,75.187,361.686,3,272.958,3z"/>
	<g>
		<g>
			<g>
				<path fill="#137CC1" d="M269.956,311.798c-83.199,0-150.882-67.685-150.882-150.881S186.758,10.033,269.956,10.033
					S420.838,77.72,420.838,160.917S353.155,311.798,269.956,311.798z"/>
			</g>
			<g>
				<path fill="#137CC1" d="M269.957,321.831c-88.728,0-160.914-72.185-160.914-160.914C109.042,72.187,181.228,0,269.957,0
					s160.914,72.187,160.914,160.917C430.871,249.646,358.685,321.831,269.957,321.831z M269.957,20.066
					c-77.664,0-140.849,63.185-140.849,140.851c0,77.665,63.184,140.849,140.849,140.849s140.849-63.184,140.849-140.849
					C410.805,83.251,347.621,20.066,269.957,20.066z"/>
			</g>
		</g>
	</g>
	<g>
		<path fill="#1068A2" d="M269.956,311.798c-83.199,0-150.882-67.685-150.882-150.881S186.758,10.033,269.956,10.033
			S420.838,77.72,420.838,160.917S353.155,311.798,269.956,311.798z"/>
	</g>
	<g>
		<g>
			<g>
				<path fill="#137CC1" d="M269.957,251.615c-49.571,0-89.897-40.327-89.897-89.897s40.326-89.898,89.897-89.898
					s89.897,40.329,89.897,89.898S319.527,251.615,269.957,251.615z"/>
			</g>
		</g>
	</g>
	<g>
		<g>
			<g>
				
					<path fill="none" stroke="#137CC1" stroke-width="8" stroke-linecap="round" stroke-linejoin="round" stroke-miterlimit="10" d="
					M390.957,146.165c0.651,5.094,0.987,10.285,0.987,15.553c0,9.389-1.066,18.534-3.084,27.32"/>
			</g>
		</g>
	</g>
	<g>
		<g>
			<g>
				
					<path fill="none" stroke="#137CC1" stroke-width="8" stroke-linecap="round" stroke-linejoin="round" stroke-miterlimit="10" d="
					M151.972,189.038c-2.018-8.786-3.084-17.93-3.084-27.32c0-5.268,0.336-10.459,0.987-15.553"/>
			</g>
		</g>
	</g>
	<g>
		<path fill="#FFFFFF" d="M296.213,117.322c-13.718-8.198-21.455-16.887-24.188-20.681c0,0-0.966-1.5-2.067-1.5
			c-1.096,0-1.993,1.502-1.993,1.502c-2.695,3.794-10.608,12.527-24.388,20.757c-15.587,9.364-27.169,25.268-27.169,44.779
			c0,29.573,23.976,53.549,53.546,53.549c29.579,0,53.553-23.976,53.553-53.549C323.507,142.618,311.873,126.671,296.213,117.322z
			 M286.895,188.852l-16.91-10.582l-16.965,10.582l5.325-20.158l-15.798-13.065h20.056l7.352-18.912l6.351,18.912h21.061
			l-15.745,13.255L286.895,188.852z"/>
	</g>
	<g>
		<path fill="#FFFFFF" d="M163.382,130.656l-23.968-9.78l4.106-10.062c3.079-7.547,9.821-11.125,17.26-8.09
			c7.438,3.035,9.788,10.324,6.723,17.834L163.382,130.656z M158.199,109.048c-3.701-1.51-7.485-0.455-9.274,3.929l-1.599,3.917
			l13.188,5.382l1.583-3.881C163.814,114.19,161.757,110.5,158.199,109.048z"/>
		<path fill="#FFFFFF" d="M183.144,93.285l-9.586-1.612l-2.013,2.76l7.024,5.124l-3.935,5.393L153.72,89.693l7.64-10.473
			c3.384-4.642,8.379-5.034,12.267-2.197c3.638,2.653,3.958,6.298,3.229,8.745l10.793,1.339L183.144,93.285z M169.593,82.488
			c-1.411-1.029-3.096-0.433-4.125,0.979l-3.11,4.265l4.484,3.271l3.11-4.265C170.982,85.326,171.067,83.562,169.593,82.488z"/>
		<path fill="#FFFFFF" d="M183.248,76.476l-9.874-11.831l5.215-4.353l9.725,11.652c1.965,2.354,4.783,2.884,7.585,0.546
			c2.741-2.289,2.754-5.181,0.789-7.535l-9.725-11.652l5.185-4.327l9.85,11.801c4.129,4.946,4.029,10.945-2.318,16.243
			C193.272,82.368,187.327,81.363,183.248,76.476z"/>
		<path fill="#FFFFFF" d="M212.709,66.577L201.392,43.29l11.66-5.667c5.237-2.545,9.813-0.41,11.866,3.813
			c2.036,4.189,0.888,9.107-4.35,11.652l-5.655,2.749l3.801,7.82L212.709,66.577z M218.809,44.406
			c-0.78-1.605-2.408-1.937-4.015-1.156l-4.853,2.358l2.427,4.992l4.853-2.358C218.826,47.461,219.572,45.977,218.809,44.406z"/>
		<path fill="#FFFFFF" d="M249.847,52.755l-2.13-3.315l-9.917,2.428l-0.357,3.925l-7.353,1.8l3.307-27.466l8.144-1.994
			l15.659,22.822L249.847,52.755z M239.038,35.539l-0.888,10.249l6.409-1.569L239.038,35.539z"/>
		<path fill="#FFFFFF" d="M260.64,51.251l-0.418-25.893l6.677-0.107l0.324,20.069l10.403-0.168l0.094,5.823L260.64,51.251z"/>
		<path fill="#FFFFFF" d="M283.103,51.838l3.826-25.606l6.604,0.987l-3.827,25.606L283.103,51.838z"/>
		<path fill="#FFFFFF" d="M295.339,53.577l1.683-5.045l15.125-10.503l-10.457-3.488l1.843-5.522l18.814,6.276l-1.683,5.044
			L305.503,50.83l10.751,3.587l-1.843,5.522L295.339,53.577z"/>
		<path fill="#FFFFFF" d="M319.271,62.311l13.425-22.137l16.229,9.842l-3.019,4.979l-10.521-6.381l-2.094,3.452l10.288,6.239
			l-3.019,4.978l-10.288-6.239l-2.274,3.751l10.521,6.38l-3.019,4.979L319.271,62.311z"/>
		<path fill="#FFFFFF" d="M341.287,73.084c1.294-1.498,3.648-1.67,5.146-0.376s1.67,3.648,0.376,5.146s-3.648,1.67-5.146,0.376
			S339.993,74.583,341.287,73.084z"/>
		<path fill="#FFFFFF" d="M363.019,101.678l13.476-10.112L359.08,96.43l-1.771-2.359l9.562-15.329l-13.476,10.112l-4.008-5.341
			l20.711-15.541l5.569,7.421l-8.002,12.751l14.502-4.088l5.569,7.422l-20.712,15.541L363.019,101.678z"/>
		<path fill="#FFFFFF" d="M369.276,112.583l24.101-9.465l6.939,17.669l-5.421,2.128l-4.498-11.454l-3.758,1.477l4.399,11.201
			l-5.42,2.128l-4.399-11.201l-4.083,1.604l4.498,11.454l-5.42,2.129L369.276,112.583z"/>
	</g>
	<g>
		<path fill="#FFFFFF" d="M149.756,216.495l16.417-8.905l3.979,7.334c2.804,5.169,1.933,10.61-3.31,13.454
			c-5.242,2.845-10.303,0.62-13.094-4.523L149.756,216.495z M164.104,223.333c2.216-1.202,3.17-3.376,1.729-6.034l-1.296-2.388
			l-7.752,4.206l1.281,2.362C159.414,223.965,162.036,224.454,164.104,223.333z"/>
		<path fill="#FFFFFF" d="M168.379,245.596l2.981-5.687l-1.277-1.597l-4.592,3.676l-3.535-4.417l14.584-11.674l6.23,7.784
			c2.73,3.411,1.927,7.068-0.807,9.256c-2.515,2.013-5.021,1.615-6.517,0.911l-3.043,6.776L168.379,245.596z M178.398,238.438
			c0.788-0.63,0.577-1.609-0.018-2.354l-2.152-2.689l-2.296,1.838l2.152,2.689C176.679,238.666,177.589,239.085,178.398,238.438z"/>
		<path fill="#FFFFFF" d="M181.584,249.215l7.214-8.305l4.333,3.763l-7.086,8.157c-1.175,1.353-1.224,3.202,0.531,4.726
			c1.732,1.505,3.557,1.198,4.731-0.154l7.085-8.157l4.333,3.763l-7.196,8.284c-3.047,3.508-7.466,4.156-12.221,0.026
			C178.554,257.187,178.556,252.703,181.584,249.215z"/>
		<path fill="#FFFFFF" d="M196.075,270.984l9.536-16.061l8.572,5.09c3.756,2.23,4.291,5.936,2.504,8.945
			c-1.772,2.985-5.282,4.289-9.038,2.059l-3.708-2.202l-3.003,5.057L196.075,270.984z M211.752,266.028
			c0.515-0.867,0.107-1.662-0.711-2.148l-3.082-1.83l-1.501,2.528l3.082,1.83C210.359,266.893,211.251,266.871,211.752,266.028z"/>
		<path fill="#FFFFFF" d="M225.139,285.585l0.18-2.278l-6.248-2.476l-1.429,1.783l-5.962-2.362l13.284-14.825l6.612,2.619
			l-0.477,19.901L225.139,285.585z M226.228,271.891l-3.936,4.916l3.436,1.361L226.228,271.891z"/>
		<path fill="#FFFFFF" d="M235.596,288.951l4.02-18.238l5.523,1.218l-2.959,13.426l6.918,1.524l-1.061,4.812L235.596,288.951z"/>
		<path fill="#FFFFFF" d="M270.02,293.361l-0.293-13.748l-5.012,0.106l-0.104-4.928l15.651-0.333l0.105,4.929l-4.984,0.105
			l0.292,13.748L270.02,293.361z"/>
		<path fill="#FFFFFF" d="M296.319,290.717l-3.6-5.312l-2.01,0.371l1.067,5.78l-5.561,1.026l-3.39-18.36l9.8-1.809
			c4.294-0.793,7.135,1.643,7.771,5.084c0.584,3.165-0.95,5.185-2.277,6.17l4.53,5.882L296.319,290.717z M294.748,278.511
			c-0.183-0.99-1.146-1.269-2.081-1.096l-3.386,0.625l0.533,2.891l3.386-0.625C294.137,280.133,294.937,279.53,294.748,278.511z"/>
		<path fill="#FFFFFF" d="M320.118,283.528l-1.396-1.809l-6.292,2.362l0.139,2.281l-6.003,2.253l-0.115-19.906l6.658-2.499
			l13.014,15.063L320.118,283.528z M311.728,272.651l0.386,6.285l3.461-1.299L311.728,272.651z"/>
		<path fill="#FFFFFF" d="M329.869,279.001l-8.854-16.447l4.98-2.682l8.854,16.447L329.869,279.001z"/>
		<path fill="#FFFFFF" d="M350.598,265.873l-11.145-3.573l5.586,7.639l-4.565,3.338l-11.022-15.073l4.701-3.437l10.465,3.307
			l-5.223-7.141l4.565-3.338l11.022,15.072L350.598,265.873z"/>
		<path fill="#FFFFFF" d="M359.593,258.229l-12.987-13.424l4.065-3.933l12.987,13.424L359.593,258.229z"/>
		<path fill="#FFFFFF" d="M375.994,239.956l-11.696-0.418l7.447,5.838l-3.489,4.451l-14.696-11.521l3.593-4.583l10.97,0.347
			l-6.963-5.458l3.489-4.451l14.696,11.521L375.994,239.956z"/>
		<path fill="#FFFFFF" d="M374.304,226.486c-5.316-2.766-6.438-8.558-3.827-13.575c2.055-3.95,5.43-5.099,8.109-5.03l-0.036,5.348
			c-1.265-0.058-2.876,0.492-3.651,1.982c-1.254,2.41-0.256,4.981,2.055,6.183c2.311,1.202,4.988,0.544,6.242-1.865
			c0.491-0.944,0.725-2.243,0.599-2.972l-0.596-0.31l-1.603,3.08l-4.372-2.275l4.2-8.073l6.781,3.528
			c1.081,2.898,1.104,6.067-0.588,9.321C385.006,226.846,379.595,229.239,374.304,226.486z"/>
	</g>
</g>
</svg>
