<?xml version="1.0" encoding="utf-8"?>
<!-- Generator: Adobe Illustrator 17.0.2, SVG Export Plug-In . SVG Version: 6.00 Build 0)  -->
<!DOCTYPE svg PUBLIC "-//W3C//DTD SVG 1.1//EN" "http://www.w3.org/Graphics/SVG/1.1/DTD/svg11.dtd">
<svg version="1.1" id="Layer_1" xmlns="http://www.w3.org/2000/svg" xmlns:xlink="http://www.w3.org/1999/xlink" x="0px" y="0px"
	 width="633.553px" height="504.044px" viewBox="0 0 633.553 504.044" enable-background="new 0 0 633.553 504.044"
	 xml:space="preserve">
<path fill="#FFD76D" d="M565.548,30.823H68.005c-6.466,0-11.708,5.242-11.708,11.708v8.239v9.973V212.31h520.958V60.742v-9.973
	V42.53C577.255,36.065,572.014,30.823,565.548,30.823z"/>
<path fill="#FFC93A" d="M565.548,38.064H68.005c-6.466,0-11.708,5.242-11.708,11.708v8.239v9.973v140.783h520.958V67.983V58.01
	v-8.239C577.255,43.305,572.014,38.064,565.548,38.064z"/>
<polygon fill="#FFBB07" points="562.291,132.046 544.544,82.375 516.576,82.375 498.829,132.046 490.71,132.046 482.59,132.046 
	464.844,82.375 436.876,82.375 419.129,132.046 411.009,132.046 402.89,132.046 385.143,82.375 357.175,82.375 339.428,132.046 
	331.309,132.046 323.19,132.046 305.443,82.375 277.475,82.375 259.728,132.046 251.609,132.046 251.609,132.046 243.489,132.046 
	225.743,82.375 197.775,82.375 180.028,132.046 171.908,132.046 163.238,132.046 145.491,82.375 117.523,82.375 99.776,132.046 
	92.208,132.046 92.208,149.655 92.208,208.193 92.208,221.565 92.208,272.576 171.908,272.576 251.609,272.576 251.609,272.576 
	331.309,272.576 331.309,272.576 411.009,272.576 490.71,272.576 570.41,272.576 570.41,221.565 570.41,208.193 570.41,149.655 
	570.41,132.046 "/>
<polygon fill="#FFD76D" points="476.177,136.647 396.477,136.647 316.776,136.647 316.776,136.647 237.076,136.647 157.376,136.647 
	77.675,136.647 77.675,259.567 157.376,259.567 237.076,259.567 316.776,259.567 316.776,259.567 396.477,259.567 476.177,259.567 
	555.877,259.567 555.877,136.647 "/>
<rect x="77.675" y="119.037" fill="#D32D24" width="79.7" height="140.53"/>
<rect x="157.376" y="119.037" fill="#FF7B4D" width="79.7" height="140.53"/>
<path fill="#C60E00" d="M140.941,204.003c0,6.466-5.242,11.707-11.708,11.707h-23.415c-6.466,0-11.708-5.242-11.708-11.707v-42.277
	c0-6.466,5.242-11.708,11.708-11.708h23.415c6.466,0,11.708,5.242,11.708,11.708V204.003z"/>
<path fill="#FD7037" d="M220.641,204.003c0,6.466-5.242,11.707-11.708,11.707h-23.415c-6.466,0-11.708-5.242-11.708-11.707v-42.277
	c0-6.466,5.242-11.708,11.708-11.708h23.415c6.466,0,11.708,5.242,11.708,11.708V204.003z"/>
<rect x="237.076" y="119.037" fill="#FFD983" width="79.7" height="140.53"/>
<rect x="316.776" y="119.037" fill="#40C676" width="79.7" height="140.53"/>
<path fill="#FFC93A" d="M300.341,204.003c0,6.466-5.242,11.707-11.707,11.707h-23.415c-6.466,0-11.708-5.242-11.708-11.707v-42.277
	c0-6.466,5.242-11.708,11.708-11.708h23.415c6.466,0,11.707,5.242,11.707,11.708V204.003z"/>
<path fill="#00BE4C" d="M380.042,204.003c0,6.466-5.242,11.707-11.707,11.707h-23.415c-6.466,0-11.707-5.242-11.707-11.707v-42.277
	c0-6.466,5.242-11.708,11.707-11.708h23.415c6.466,0,11.707,5.242,11.707,11.708V204.003z"/>
<polygon fill="#2D8CC1" points="476.177,119.037 396.477,119.037 396.477,259.567 476.177,241.958 536.781,119.037 "/>
<path fill="#137CC1" d="M459.742,204.003c0,6.466-5.242,11.707-11.708,11.707h-23.415c-6.466,0-11.708-5.242-11.708-11.707v-42.277
	c0-6.466,5.242-11.708,11.708-11.708h23.415c6.466,0,11.708,5.242,11.708,11.708V204.003z"/>
<rect x="476.177" y="119.037" fill="#137CC1" width="79.7" height="140.53"/>
<path fill="#0F68A2" d="M539.442,204.003c0,6.466-5.242,11.707-11.708,11.707H504.32c-6.466,0-11.707-5.242-11.707-11.707v-42.277
	c0-6.466,5.242-11.708,11.707-11.708h23.415c6.466,0,11.708,5.242,11.708,11.708V204.003z"/>
<rect x="56.298" y="208.766" fill="#FFD76D" width="520.958" height="295.278"/>
<rect x="77.675" y="195.184" fill="#C60E00" width="79.7" height="13.372"/>
<rect x="157.376" y="195.184" fill="#FD7037" width="79.7" height="13.372"/>
<rect x="237.076" y="195.184" fill="#FFC93A" width="79.7" height="13.372"/>
<rect x="316.776" y="195.184" fill="#00BE4C" width="79.7" height="13.372"/>
<rect x="396.477" y="195.184" fill="#137CC1" width="79.7" height="13.372"/>
<rect x="476.177" y="195.184" fill="#0F68A2" width="79.7" height="13.372"/>
<polygon fill="#D32D24" points="130.958,69.367 102.99,69.367 84.778,120.338 149.17,120.338 "/>
<polygon fill="#FF7B4D" points="211.21,69.367 183.242,69.367 165.03,120.338 229.422,120.338 "/>
<polygon fill="#FFD76D" points="290.91,69.367 262.942,69.367 244.731,120.338 309.122,120.338 "/>
<polygon fill="#40C676" points="370.611,69.367 342.643,69.367 324.431,120.338 388.822,120.338 "/>
<polygon fill="#2D8CC1" points="450.311,69.367 422.343,69.367 404.131,120.338 468.523,120.338 "/>
<polygon fill="#137CC1" points="530.011,69.367 502.043,69.367 483.832,120.338 548.223,120.338 "/>
<polyline fill="#00A945" points="362.676,504.044 577.255,504.044 577.255,310.337 "/>
<polyline fill="#00BE4C" points="404.904,504.044 577.255,504.044 577.255,346.278 "/>
<polyline fill="#00A945" points="270.876,504.044 56.298,504.044 56.298,310.337 "/>
<polyline fill="#00BE4C" points="228.649,504.044 56.298,504.044 56.298,346.278 "/>
<rect x="77.675" y="119.037" fill="#C60E00" width="79.7" height="17.609"/>
<rect x="157.376" y="119.037" fill="#FD7037" width="79.7" height="17.609"/>
<rect x="237.076" y="119.037" fill="#FFC93A" width="79.7" height="17.609"/>
<rect x="316.776" y="119.037" fill="#00BE4C" width="79.7" height="17.609"/>
<rect x="396.477" y="119.037" fill="#137CC1" width="79.7" height="17.609"/>
<rect x="476.177" y="119.037" fill="#0F68A2" width="79.7" height="17.609"/>
<rect x="56.298" y="208.766" opacity="0.5" fill="#FFD983" width="520.958" height="7.087"/>
<rect x="566.228" y="139.893" transform="matrix(0.8015 0.5981 -0.5981 0.8015 245.7364 -301.7004)" fill="#FFD76D" width="22.054" height="158.714"/>
<rect x="45.271" y="139.893" transform="matrix(-0.8015 0.5981 -0.5981 -0.8015 232.5417 361.2998)" fill="#FFD76D" width="22.054" height="158.714"/>
<g>
	<g>
		<path fill="#00A945" d="M179.27,311.773c0-15.449,11.849-25.874,27.524-25.874c13.124,0,19.724,7.65,22.724,14.55l-13.05,6.075
			c-1.274-3.9-5.175-7.275-9.674-7.275c-7.275,0-12.15,5.55-12.15,12.524c0,6.975,4.875,12.524,12.15,12.524
			c4.499,0,8.399-3.375,9.674-7.274l13.05,6c-2.925,6.675-9.6,14.625-22.724,14.625C191.119,337.647,179.27,327.148,179.27,311.773z
			"/>
		<path fill="#00A945" d="M231.542,311.773c0-15.374,11.925-25.874,27.374-25.874s27.374,10.5,27.374,25.874
			c0,15.375-11.925,25.874-27.374,25.874S231.542,327.148,231.542,311.773z M270.915,311.773c0-6.975-4.725-12.524-11.999-12.524
			s-12,5.55-12,12.524c0,6.975,4.726,12.524,12,12.524S270.915,318.749,270.915,311.773z"/>
		<path fill="#00A945" d="M291.689,336.748v-50.023h15.149v36.824h18.975v13.199H291.689z"/>
		<path fill="#00A945" d="M327.688,311.773c0-15.374,11.925-25.874,27.374-25.874s27.374,10.5,27.374,25.874
			c0,15.375-11.925,25.874-27.374,25.874S327.688,327.148,327.688,311.773z M367.062,311.773c0-6.975-4.726-12.524-12-12.524
			s-11.999,5.55-11.999,12.524c0,6.975,4.725,12.524,11.999,12.524S367.062,318.749,367.062,311.773z"/>
		<path fill="#00A945" d="M415.359,336.748l-6.899-15.75h-5.475v15.75h-15.149v-50.023h26.699c11.699,0,17.999,7.8,17.999,17.174
			c0,8.625-5.024,13.199-9,15.149l9.075,17.699H415.359z M417.16,303.824c0-2.7-2.4-3.9-4.95-3.9h-9.225v7.875h9.225
			C414.76,307.799,417.16,306.599,417.16,303.824z"/>
		<path fill="#00A945" d="M439.134,318.148l-2.025-31.424h16.05l-1.875,31.424H439.134z M437.259,329.623
			c0-4.35,3.6-8.025,7.949-8.025c4.351,0,7.95,3.675,7.95,8.025c0,4.274-3.6,7.95-7.95,7.95
			C440.858,337.573,437.259,333.897,437.259,329.623z"/>
	</g>
	<rect x="178.52" y="358.798" fill="#40C676" width="276.512" height="15.723"/>
	<rect x="178.52" y="247.803" fill="#40C676" width="276.512" height="15.723"/>
</g>
</svg>
